<?xml version="1.0" encoding="UTF-8" standalone="no"?>
<!DOCTYPE svg PUBLIC "-//W3C//DTD SVG 1.1//EN"
 "http://www.w3.org/Graphics/SVG/1.1/DTD/svg11.dtd">
<!-- Generated by graphviz version 2.47.0 (20210316.0004)
 -->
<!-- Title: dependencies Pages: 1 -->
<svg width="626pt" height="211pt"
 viewBox="0.00 0.00 626.00 211.00" xmlns="http://www.w3.org/2000/svg" xmlns:xlink="http://www.w3.org/1999/xlink">
<g id="graph0" class="graph" transform="scale(1 1) rotate(0) translate(4 207)">
<title>dependencies</title>
<polygon fill="white" stroke="transparent" points="-4,4 -4,-207 622,-207 622,4 -4,4"/>
<text text-anchor="start" x="288.01" y="-42.4" font-family="Times-12" font-weight="bold" font-size="14.00">Legend</text>
<polygon fill="#ffffb3" stroke="transparent" points="75,-10 75,-30 95,-30 95,-10 75,-10"/>
<text text-anchor="start" x="98.63" y="-15.4" font-family="Times-12" font-size="14.00"> &#160;Declarations</text>
<polygon fill="#8dd3c7" stroke="transparent" points="188,-10 188,-30 208,-30 208,-10 188,-10"/>
<text text-anchor="start" x="211.73" y="-15.4" font-family="Times-12" font-size="14.00"> &#160;Module</text>
<polygon fill="#80b1d3" stroke="transparent" points="274,-10 274,-30 294,-30 294,-10 274,-10"/>
<text text-anchor="start" x="297.78" y="-15.4" font-family="Times-12" font-size="14.00"> &#160;Bootstrap</text>
<polygon fill="#fdb462" stroke="transparent" points="371,-10 371,-30 391,-30 391,-10 371,-10"/>
<text text-anchor="start" x="394.67" y="-15.4" font-family="Times-12" font-size="14.00"> &#160;Providers</text>
<polygon fill="#fb8072" stroke="transparent" points="467,-10 467,-30 487,-30 487,-10 467,-10"/>
<text text-anchor="start" x="490.73" y="-15.4" font-family="Times-12" font-size="14.00"> &#160;Exports</text>
<g id="clust1" class="cluster">
<title>cluster_AuthenticationModule</title>
<polygon fill="none" stroke="black" stroke-dasharray="1,5" points="8,-70 8,-195 610,-195 610,-70 8,-70"/>
</g>
<g id="clust6" class="cluster">
<title>cluster_AuthenticationModule_providers</title>
<polygon fill="none" stroke="black" points="126,-78 126,-130 602,-130 602,-78 126,-78"/>
</g>
<g id="clust3" class="cluster">
<title>cluster_AuthenticationModule_imports</title>
<polygon fill="none" stroke="black" points="16,-78 16,-130 118,-130 118,-78 16,-78"/>
</g>
<!-- UserModule -->
<g id="node1" class="node">
<title>UserModule</title>
<polygon fill="#8dd3c7" stroke="black" points="109.98,-122 106.98,-126 85.98,-126 82.98,-122 24.02,-122 24.02,-86 109.98,-86 109.98,-122"/>
<text text-anchor="middle" x="67" y="-99.8" font-family="Times,serif" font-size="14.00">UserModule</text>
</g>
<!-- AuthenticationModule -->
<g id="node2" class="node">
<title>AuthenticationModule</title>
<polygon fill="#8dd3c7" stroke="black" points="329.25,-187 326.25,-191 305.25,-191 302.25,-187 186.75,-187 186.75,-151 329.25,-151 329.25,-187"/>
<text text-anchor="middle" x="258" y="-164.8" font-family="Times,serif" font-size="14.00">AuthenticationModule</text>
</g>
<!-- UserModule&#45;&gt;AuthenticationModule -->
<g id="edge1" class="edge">
<title>UserModule&#45;&gt;AuthenticationModule</title>
<path fill="none" stroke="black" d="M67,-122.11C67,-141.34 67,-169 67,-169 67,-169 176.61,-169 176.61,-169"/>
<polygon fill="black" stroke="black" points="176.61,-172.5 186.61,-169 176.61,-165.5 176.61,-172.5"/>
</g>
<!-- AuthenticationService -->
<g id="node3" class="node">
<title>AuthenticationService</title>
<ellipse fill="#fdb462" stroke="black" cx="497" cy="-104" rx="97.27" ry="18"/>
<text text-anchor="middle" x="497" y="-99.8" font-family="Times,serif" font-size="14.00">AuthenticationService</text>
</g>
<!-- AuthenticationService&#45;&gt;AuthenticationModule -->
<g id="edge2" class="edge">
<title>AuthenticationService&#45;&gt;AuthenticationModule</title>
<path fill="none" stroke="black" d="M497,-122.11C497,-141.34 497,-169 497,-169 497,-169 339.38,-169 339.38,-169"/>
<polygon fill="black" stroke="black" points="339.38,-165.5 329.38,-169 339.38,-172.5 339.38,-165.5"/>
</g>
<!-- JwtStrategy -->
<g id="node4" class="node">
<title>JwtStrategy</title>
<ellipse fill="#fdb462" stroke="black" cx="325" cy="-104" rx="56.76" ry="18"/>
<text text-anchor="middle" x="325" y="-99.8" font-family="Times,serif" font-size="14.00">JwtStrategy</text>
</g>
<!-- JwtStrategy&#45;&gt;AuthenticationModule -->
<g id="edge3" class="edge">
<title>JwtStrategy&#45;&gt;AuthenticationModule</title>
<path fill="none" stroke="black" d="M298.87,-120.07C298.87,-120.07 298.87,-140.82 298.87,-140.82"/>
<polygon fill="black" stroke="black" points="295.37,-140.82 298.87,-150.82 302.37,-140.82 295.37,-140.82"/>
</g>
<!-- UserService -->
<g id="node5" class="node">
<title>UserService</title>
<ellipse fill="#fdb462" stroke="black" cx="192" cy="-104" rx="58.44" ry="18"/>
<text text-anchor="middle" x="192" y="-99.8" font-family="Times,serif" font-size="14.00">UserService</text>
</g>
<!-- UserService&#45;&gt;AuthenticationModule -->
<g id="edge4" class="edge">
<title>UserService&#45;&gt;AuthenticationModule</title>
<path fill="none" stroke="black" d="M218.42,-120.07C218.42,-120.07 218.42,-140.82 218.42,-140.82"/>
<polygon fill="black" stroke="black" points="214.92,-140.82 218.42,-150.82 221.92,-140.82 214.92,-140.82"/>
</g>
</g>
</svg>
