<?xml version="1.0" encoding="UTF-8" standalone="no"?>
<!DOCTYPE svg PUBLIC "-//W3C//DTD SVG 1.1//EN"
 "http://www.w3.org/Graphics/SVG/1.1/DTD/svg11.dtd">
<!-- Generated by graphviz version 2.47.0 (20210316.0004)
 -->
<!-- Title: dependencies Pages: 1 -->
<svg width="945pt" height="211pt"
 viewBox="0.00 0.00 945.00 211.00" xmlns="http://www.w3.org/2000/svg" xmlns:xlink="http://www.w3.org/1999/xlink">
<g id="graph0" class="graph" transform="scale(1 1) rotate(0) translate(4 207)">
<title>dependencies</title>
<polygon fill="white" stroke="transparent" points="-4,4 -4,-207 941,-207 941,4 -4,4"/>
<text text-anchor="start" x="447.51" y="-42.4" font-family="Times-12" font-weight="bold" font-size="14.00">Legend</text>
<polygon fill="#ffffb3" stroke="transparent" points="234.5,-10 234.5,-30 254.5,-30 254.5,-10 234.5,-10"/>
<text text-anchor="start" x="258.13" y="-15.4" font-family="Times-12" font-size="14.00"> &#160;Declarations</text>
<polygon fill="#8dd3c7" stroke="transparent" points="347.5,-10 347.5,-30 367.5,-30 367.5,-10 347.5,-10"/>
<text text-anchor="start" x="371.23" y="-15.4" font-family="Times-12" font-size="14.00"> &#160;Module</text>
<polygon fill="#80b1d3" stroke="transparent" points="433.5,-10 433.5,-30 453.5,-30 453.5,-10 433.5,-10"/>
<text text-anchor="start" x="457.28" y="-15.4" font-family="Times-12" font-size="14.00"> &#160;Bootstrap</text>
<polygon fill="#fdb462" stroke="transparent" points="530.5,-10 530.5,-30 550.5,-30 550.5,-10 530.5,-10"/>
<text text-anchor="start" x="554.17" y="-15.4" font-family="Times-12" font-size="14.00"> &#160;Providers</text>
<polygon fill="#fb8072" stroke="transparent" points="626.5,-10 626.5,-30 646.5,-30 646.5,-10 626.5,-10"/>
<text text-anchor="start" x="650.23" y="-15.4" font-family="Times-12" font-size="14.00"> &#160;Exports</text>
<g id="clust1" class="cluster">
<title>cluster_AppModule</title>
<polygon fill="none" stroke="black" stroke-dasharray="1,5" points="8,-70 8,-195 929,-195 929,-70 8,-70"/>
</g>
<g id="clust3" class="cluster">
<title>cluster_AppModule_imports</title>
<polygon fill="none" stroke="black" points="154,-78 154,-130 921,-130 921,-78 154,-78"/>
</g>
<g id="clust6" class="cluster">
<title>cluster_AppModule_providers</title>
<polygon fill="none" stroke="black" points="16,-78 16,-130 146,-130 146,-78 16,-78"/>
</g>
<!-- AuthenticationModule -->
<g id="node1" class="node">
<title>AuthenticationModule</title>
<polygon fill="#8dd3c7" stroke="black" points="913.25,-122 910.25,-126 889.25,-126 886.25,-122 770.75,-122 770.75,-86 913.25,-86 913.25,-122"/>
<text text-anchor="middle" x="842" y="-99.8" font-family="Times,serif" font-size="14.00">AuthenticationModule</text>
</g>
<!-- AppModule -->
<g id="node7" class="node">
<title>AppModule</title>
<polygon fill="#8dd3c7" stroke="black" points="475.66,-187 472.66,-191 451.66,-191 448.66,-187 392.34,-187 392.34,-151 475.66,-151 475.66,-187"/>
<text text-anchor="middle" x="434" y="-164.8" font-family="Times,serif" font-size="14.00">AppModule</text>
</g>
<!-- AuthenticationModule&#45;&gt;AppModule -->
<g id="edge1" class="edge">
<title>AuthenticationModule&#45;&gt;AppModule</title>
<path fill="none" stroke="black" d="M842,-122.29C842,-144.21 842,-178 842,-178 842,-178 485.75,-178 485.75,-178"/>
<polygon fill="black" stroke="black" points="485.75,-174.5 475.75,-178 485.75,-181.5 485.75,-174.5"/>
</g>
<!-- CategoryModule -->
<g id="node2" class="node">
<title>CategoryModule</title>
<polygon fill="#8dd3c7" stroke="black" points="752.37,-122 749.37,-126 728.37,-126 725.37,-122 641.63,-122 641.63,-86 752.37,-86 752.37,-122"/>
<text text-anchor="middle" x="697" y="-99.8" font-family="Times,serif" font-size="14.00">CategoryModule</text>
</g>
<!-- CategoryModule&#45;&gt;AppModule -->
<g id="edge2" class="edge">
<title>CategoryModule&#45;&gt;AppModule</title>
<path fill="none" stroke="black" d="M697,-122.11C697,-141.34 697,-169 697,-169 697,-169 485.67,-169 485.67,-169"/>
<polygon fill="black" stroke="black" points="485.67,-165.5 475.67,-169 485.67,-172.5 485.67,-165.5"/>
</g>
<!-- FaqCategoryModule -->
<g id="node3" class="node">
<title>FaqCategoryModule</title>
<polygon fill="#8dd3c7" stroke="black" points="623.86,-122 620.86,-126 599.86,-126 596.86,-122 492.14,-122 492.14,-86 623.86,-86 623.86,-122"/>
<text text-anchor="middle" x="558" y="-99.8" font-family="Times,serif" font-size="14.00">FaqCategoryModule</text>
</g>
<!-- FaqCategoryModule&#45;&gt;AppModule -->
<g id="edge3" class="edge">
<title>FaqCategoryModule&#45;&gt;AppModule</title>
<path fill="none" stroke="black" d="M558,-122.03C558,-138.4 558,-160 558,-160 558,-160 485.98,-160 485.98,-160"/>
<polygon fill="black" stroke="black" points="485.98,-156.5 475.98,-160 485.98,-163.5 485.98,-156.5"/>
</g>
<!-- FaqModule -->
<g id="node4" class="node">
<title>FaqModule</title>
<polygon fill="#8dd3c7" stroke="black" points="474.05,-122 471.05,-126 450.05,-126 447.05,-122 393.95,-122 393.95,-86 474.05,-86 474.05,-122"/>
<text text-anchor="middle" x="434" y="-99.8" font-family="Times,serif" font-size="14.00">FaqModule</text>
</g>
<!-- FaqModule&#45;&gt;AppModule -->
<g id="edge4" class="edge">
<title>FaqModule&#45;&gt;AppModule</title>
<path fill="none" stroke="black" d="M434,-122.11C434,-122.11 434,-140.99 434,-140.99"/>
<polygon fill="black" stroke="black" points="430.5,-140.99 434,-150.99 437.5,-140.99 430.5,-140.99"/>
</g>
<!-- QuestionModule -->
<g id="node5" class="node">
<title>QuestionModule</title>
<polygon fill="#8dd3c7" stroke="black" points="376.1,-122 373.1,-126 352.1,-126 349.1,-122 265.9,-122 265.9,-86 376.1,-86 376.1,-122"/>
<text text-anchor="middle" x="321" y="-99.8" font-family="Times,serif" font-size="14.00">QuestionModule</text>
</g>
<!-- QuestionModule&#45;&gt;AppModule -->
<g id="edge5" class="edge">
<title>QuestionModule&#45;&gt;AppModule</title>
<path fill="none" stroke="black" d="M321,-122.03C321,-138.4 321,-160 321,-160 321,-160 382.24,-160 382.24,-160"/>
<polygon fill="black" stroke="black" points="382.24,-163.5 392.24,-160 382.24,-156.5 382.24,-163.5"/>
</g>
<!-- UserModule -->
<g id="node6" class="node">
<title>UserModule</title>
<polygon fill="#8dd3c7" stroke="black" points="247.98,-122 244.98,-126 223.98,-126 220.98,-122 162.02,-122 162.02,-86 247.98,-86 247.98,-122"/>
<text text-anchor="middle" x="205" y="-99.8" font-family="Times,serif" font-size="14.00">UserModule</text>
</g>
<!-- UserModule&#45;&gt;AppModule -->
<g id="edge6" class="edge">
<title>UserModule&#45;&gt;AppModule</title>
<path fill="none" stroke="black" d="M205,-122.11C205,-141.34 205,-169 205,-169 205,-169 382.26,-169 382.26,-169"/>
<polygon fill="black" stroke="black" points="382.26,-172.5 392.26,-169 382.26,-165.5 382.26,-172.5"/>
</g>
<!-- AppService -->
<g id="node8" class="node">
<title>AppService</title>
<ellipse fill="#fdb462" stroke="black" cx="81" cy="-104" rx="56.74" ry="18"/>
<text text-anchor="middle" x="81" y="-99.8" font-family="Times,serif" font-size="14.00">AppService</text>
</g>
<!-- AppService&#45;&gt;AppModule -->
<g id="edge7" class="edge">
<title>AppService&#45;&gt;AppModule</title>
<path fill="none" stroke="black" d="M81,-122.29C81,-144.21 81,-178 81,-178 81,-178 382.12,-178 382.12,-178"/>
<polygon fill="black" stroke="black" points="382.12,-181.5 392.12,-178 382.12,-174.5 382.12,-181.5"/>
</g>
</g>
</svg>
